<svg xmlns="http://www.w3.org/2000/svg" width="1600" height="1000" viewBox="0 0 1600 1000" font-family="ui-monospace,'Cascadia Mono','Courier New',monospace">
  <defs>
    <radialGradient id="gv" cx="14%" cy="16%" r="55%">
      <stop offset="0%" stop-color="#221440" stop-opacity="0.5"/>
      <stop offset="100%" stop-color="#221440" stop-opacity="0"/>
    </radialGradient>
    <radialGradient id="gt" cx="90%" cy="80%" r="45%">
      <stop offset="0%" stop-color="#0b2b2b" stop-opacity="0.45"/>
      <stop offset="100%" stop-color="#0b2b2b" stop-opacity="0"/>
    </radialGradient>
    <radialGradient id="ga" cx="50%" cy="6%" r="38%">
      <stop offset="0%" stop-color="#ceff00" stop-opacity="0.06"/>
      <stop offset="100%" stop-color="#ceff00" stop-opacity="0"/>
    </radialGradient>
    <pattern id="dots" width="28" height="28" patternUnits="userSpaceOnUse">
      <circle cx="1.5" cy="1.5" r="1" fill="#eae8e3" fill-opacity="0.045"/>
    </pattern>
    <filter id="sh" x="-8%" y="-12%" width="116%" height="130%">
      <feDropShadow dx="0" dy="16" stdDeviation="24" flood-color="#000000" flood-opacity="0.55"/>
    </filter>
  </defs>

  <rect width="1600" height="1000" fill="#060607"/>
  <rect width="1600" height="1000" fill="url(#gv)"/>
  <rect width="1600" height="1000" fill="url(#gt)"/>
  <rect width="1600" height="1000" fill="url(#ga)"/>
  <rect width="1600" height="1000" fill="url(#dots)"/>

  <g stroke="#eae8e3" stroke-opacity="0.18" fill="none">
    <path d="M56 78v-22h22"/>
    <path d="M1544 78v-22h-22"/>
    <path d="M56 922v22h22"/>
    <path d="M1544 922v22h-22"/>
  </g>
  <text x="110" y="96" font-size="11" letter-spacing="2" fill="#56554f">FIG. 02 / INQUIRY PIPELINE</text>
  <line x1="450" y1="92" x2="1140" y2="92" stroke="#eae8e3" stroke-opacity="0.12" stroke-dasharray="1 7"/>
  <text x="1490" y="96" text-anchor="end" font-size="11" letter-spacing="2" fill="#56554f">CLASSIFY &#183; ANSWER &#183; ESCALATE</text>

  <!-- pipeline stages -->
  <g filter="url(#sh)">
    <rect x="110" y="300" width="300" height="150" fill="#0c0c0e" stroke="#eae8e3" stroke-opacity="0.14"/>
    <rect x="500" y="300" width="300" height="150" fill="#0c0c0e" stroke="#eae8e3" stroke-opacity="0.14"/>
    <rect x="890" y="170" width="300" height="150" fill="#0c0c0e" stroke="#ceff00" stroke-opacity="0.35"/>
    <rect x="890" y="430" width="300" height="150" fill="#0c0c0e" stroke="#eae8e3" stroke-opacity="0.14"/>
    <rect x="1280" y="170" width="210" height="150" fill="#0c0c0e" stroke="#eae8e3" stroke-opacity="0.14"/>
    <rect x="1280" y="430" width="210" height="150" fill="#0c0c0e" stroke="#eae8e3" stroke-opacity="0.14"/>
  </g>

  <text x="128" y="330" font-size="10" letter-spacing="2" fill="#56554f">A</text>
  <text x="260" y="368" text-anchor="middle" font-size="15" letter-spacing="2" fill="#eae8e3" fill-opacity="0.9">INBOX</text>
  <text x="260" y="398" text-anchor="middle" font-size="10" letter-spacing="1" fill="#56554f">FREE-FORM TIER-1 INQUIRIES</text>
  <text x="260" y="420" text-anchor="middle" font-size="10" letter-spacing="1" fill="#56554f">EMAIL &#183; PORTAL &#183; CRM</text>

  <text x="518" y="330" font-size="10" letter-spacing="2" fill="#56554f">B</text>
  <text x="650" y="368" text-anchor="middle" font-size="15" letter-spacing="2" fill="#eae8e3" fill-opacity="0.9">GPT-NLP CLASSIFY</text>
  <text x="650" y="398" text-anchor="middle" font-size="10" letter-spacing="1" fill="#56554f">INTENT + CONFIDENCE</text>
  <text x="650" y="420" text-anchor="middle" font-size="10" letter-spacing="1" fill="#56554f">TIER-1 OR NOT</text>

  <text x="908" y="200" font-size="10" letter-spacing="2" fill="#56554f">C</text>
  <text x="1040" y="238" text-anchor="middle" font-size="15" letter-spacing="2" fill="#ceff00">AUTO-ANSWER</text>
  <text x="1040" y="268" text-anchor="middle" font-size="10" letter-spacing="1" fill="#56554f">HIGH CONFIDENCE ONLY</text>
  <text x="1040" y="290" text-anchor="middle" font-size="10" letter-spacing="1" fill="#56554f">~60% OF TIER-1</text>

  <text x="908" y="460" font-size="10" letter-spacing="2" fill="#56554f">D</text>
  <text x="1040" y="498" text-anchor="middle" font-size="15" letter-spacing="2" fill="#eae8e3" fill-opacity="0.9">TEAM QUEUE</text>
  <text x="1040" y="528" text-anchor="middle" font-size="10" letter-spacing="1" fill="#56554f">AMBIGUOUS + COMPLEX</text>
  <text x="1040" y="550" text-anchor="middle" font-size="10" letter-spacing="1" fill="#56554f">HUMAN JUDGMENT</text>

  <text x="1385" y="238" text-anchor="middle" font-size="13" letter-spacing="2" fill="#eae8e3" fill-opacity="0.9">REPLY</text>
  <text x="1385" y="266" text-anchor="middle" font-size="10" letter-spacing="1" fill="#56554f">-35% RESPONSE TIME</text>
  <text x="1385" y="498" text-anchor="middle" font-size="13" letter-spacing="2" fill="#eae8e3" fill-opacity="0.9">RESOLVE</text>
  <text x="1385" y="526" text-anchor="middle" font-size="10" letter-spacing="1" fill="#56554f">WITH FULL CONTEXT</text>

  <!-- arrows -->
  <g stroke="#ceff00" stroke-opacity="0.7" fill="none">
    <path d="M410 375h80m0 0l-9 -6m9 6l-9 6"/>
    <path d="M800 355 L880 255m0 0l-11 2m11 -2l-2 11"/>
    <path d="M800 395 L880 495m0 0l-2 -11m2 11l-11 -2"/>
    <path d="M1190 245h80m0 0l-9 -6m9 6l-9 6"/>
    <path d="M1290 505h-90m90 0l-9 -6m9 6l-9 6" transform="translate(-10 0)"/>
  </g>
  <text x="836" y="290" font-size="9" letter-spacing="1" fill="#56554f" transform="rotate(-51 836 290)">CONFIDENT</text>
  <text x="826" y="452" font-size="9" letter-spacing="1" fill="#56554f" transform="rotate(51 826 452)">UNSURE</text>

  <!-- data sources strip -->
  <line x1="110" y1="700" x2="1490" y2="700" stroke="#eae8e3" stroke-opacity="0.08"/>
  <text x="110" y="740" font-size="10" letter-spacing="2" fill="#56554f">GROUNDING</text>
  <g font-size="12" fill="#98968f">
    <text x="110" y="775">HUBSPOT CRM</text>
    <text x="360" y="775">EXCEL WORKBOOKS</text>
    <text x="650" y="775">ANSWER TEMPLATES</text>
    <text x="940" y="775">OPERATIONS KNOW-HOW</text>
  </g>
  <text x="110" y="830" font-size="10" letter-spacing="1" fill="#56554f">MEASURED AGAINST THE TEAM'S REAL WORKLOAD &#8212; NOT A DEMO DATASET</text>

  <text x="110" y="944" font-size="10" letter-spacing="2" fill="#56554f">CONCEPT DIAGRAM &#8212; PRODUCTION SYSTEM IS INTERNAL</text>
  <text x="1490" y="944" text-anchor="end" font-size="10" letter-spacing="2" fill="#56554f">4-MONTH PROJECT + 3-MONTH PILOT</text>
</svg>
