<svg xmlns="http://www.w3.org/2000/svg" width="1600" height="1000" viewBox="0 0 1600 1000" font-family="ui-monospace,'Cascadia Mono','Courier New',monospace">
  <defs>
    <radialGradient id="gv" cx="20%" cy="10%" r="55%">
      <stop offset="0%" stop-color="#221440" stop-opacity="0.5"/>
      <stop offset="100%" stop-color="#221440" stop-opacity="0"/>
    </radialGradient>
    <radialGradient id="gt" cx="88%" cy="74%" r="48%">
      <stop offset="0%" stop-color="#0b2b2b" stop-opacity="0.45"/>
      <stop offset="100%" stop-color="#0b2b2b" stop-opacity="0"/>
    </radialGradient>
    <radialGradient id="ga" cx="50%" cy="96%" r="40%">
      <stop offset="0%" stop-color="#ceff00" stop-opacity="0.06"/>
      <stop offset="100%" stop-color="#ceff00" stop-opacity="0"/>
    </radialGradient>
    <pattern id="dots" width="28" height="28" patternUnits="userSpaceOnUse">
      <circle cx="1.5" cy="1.5" r="1" fill="#eae8e3" fill-opacity="0.045"/>
    </pattern>
    <filter id="sh" x="-8%" y="-12%" width="116%" height="130%">
      <feDropShadow dx="0" dy="16" stdDeviation="24" flood-color="#000000" flood-opacity="0.55"/>
    </filter>
    <path id="arrv" d="M0 0v40m0 0l-6 -9m6 9l6 -9"/>
  </defs>

  <rect width="1600" height="1000" fill="#060607"/>
  <rect width="1600" height="1000" fill="url(#gv)"/>
  <rect width="1600" height="1000" fill="url(#gt)"/>
  <rect width="1600" height="1000" fill="url(#ga)"/>
  <rect width="1600" height="1000" fill="url(#dots)"/>

  <g stroke="#eae8e3" stroke-opacity="0.18" fill="none">
    <path d="M56 78v-22h22"/>
    <path d="M1544 78v-22h-22"/>
    <path d="M56 922v22h22"/>
    <path d="M1544 922v22h-22"/>
  </g>
  <text x="120" y="96" font-size="11" letter-spacing="2" fill="#56554f">FIG. 02 / KNOWLEDGE ROUTING</text>
  <line x1="360" y1="92" x2="1100" y2="92" stroke="#eae8e3" stroke-opacity="0.12" stroke-dasharray="1 7"/>
  <text x="1480" y="96" text-anchor="end" font-size="11" letter-spacing="2" fill="#56554f">TEAMS-BOT &#8212; THREE KNOWLEDGE PATHS</text>

  <!-- teams in -->
  <rect x="450" y="140" width="700" height="120" fill="#0c0c0e" stroke="#eae8e3" stroke-opacity="0.14" filter="url(#sh)"/>
  <text x="482" y="180" font-size="12" letter-spacing="2" fill="#eae8e3" fill-opacity="0.85">MICROSOFT TEAMS</text>
  <text x="1118" y="180" text-anchor="end" font-size="10" letter-spacing="1" fill="#56554f">WHERE EVERYONE ALREADY IS</text>
  <line x1="450" y1="196" x2="1150" y2="196" stroke="#eae8e3" stroke-opacity="0.08"/>
  <text x="482" y="232" font-size="13" fill="#98968f">&#8220;what's the operating weight of the L506?&#8221;</text>
  <circle cx="1118" cy="227" r="3" fill="#ceff00"/>

  <use href="#arrv" x="800" y="268" stroke="#ceff00" stroke-opacity="0.8" stroke-width="1.5" fill="none"/>
  <text x="816" y="292" font-size="9" letter-spacing="1" fill="#56554f">TEAMS WEBHOOK &#183; FASTAPI</text>

  <!-- router -->
  <rect x="600" y="330" width="400" height="110" fill="#141417" stroke="#ceff00" stroke-opacity="0.45" filter="url(#sh)"/>
  <text x="800" y="375" text-anchor="middle" font-size="13" letter-spacing="2" fill="#eae8e3" fill-opacity="0.9">LANGGRAPH ROUTER</text>
  <text x="800" y="405" text-anchor="middle" font-size="10" letter-spacing="1" fill="#56554f">PARSES INTENT &#183; SELECTS CAPABILITY</text>

  <!-- fan-out lines -->
  <g stroke="#ceff00" stroke-opacity="0.7" stroke-width="1.5" fill="none">
    <path d="M700 440v40h-380v44m0 0l-6 -9m6 9l6 -9"/>
    <path d="M800 440v84m0 0l-6 -9m6 9l6 -9"/>
    <path d="M900 440v40h380v44m0 0l-6 -9m6 9l6 -9"/>
  </g>
  <text x="836" y="498" font-size="9" letter-spacing="1" fill="#56554f">ROUTED PER REQUEST</text>

  <!-- specialist agents -->
  <g fill="#0c0c0e" stroke="#eae8e3" stroke-opacity="0.14">
    <rect x="120" y="568" width="400" height="150" filter="url(#sh)"/>
    <rect x="600" y="568" width="400" height="150" filter="url(#sh)"/>
    <rect x="1080" y="568" width="400" height="150" filter="url(#sh)"/>
  </g>
  <g font-size="9" fill="#56554f">
    <text x="136" y="592">AGENT 01</text>
    <text x="616" y="592">AGENT 02</text>
    <text x="1096" y="592">AGENT 03</text>
  </g>
  <g font-size="13" letter-spacing="2" text-anchor="middle" fill="#eae8e3" fill-opacity="0.85">
    <text x="320" y="630">INVENTORY</text>
    <text x="800" y="630">DOCUMENTS</text>
    <text x="1280" y="630">ADVISOR</text>
  </g>
  <g font-size="10" letter-spacing="1" text-anchor="middle" fill="#56554f">
    <text x="320" y="660">STRUCTURED MACHINE FACTS</text>
    <text x="800" y="660">MANUALS + TECHNICAL DOCS</text>
    <text x="1280" y="660">PROJECT RECOMMENDATIONS</text>
  </g>
  <g font-size="10" letter-spacing="1" text-anchor="middle" fill="#98968f">
    <text x="320" y="692">POSTGRESQL &#183; SQL</text>
    <text x="800" y="692">PINECONE &#183; EMBEDDINGS</text>
    <text x="1280" y="692">GEMINI &#183; PLANNING</text>
  </g>

  <!-- database band -->
  <g stroke="#ceff00" stroke-opacity="0.7" stroke-width="1.5" fill="none">
    <path d="M320 718v36m0 0l-6 -9m6 9l6 -9"/>
    <path d="M800 718v36m0 0l-6 -9m6 9l6 -9"/>
    <path d="M1280 718v36m0 0l-6 -9m6 9l6 -9"/>
  </g>
  <rect x="120" y="770" width="1360" height="110" fill="#141417" stroke="#eae8e3" stroke-opacity="0.16" filter="url(#sh)"/>
  <text x="152" y="812" font-size="12" letter-spacing="2" fill="#eae8e3" fill-opacity="0.85">CONNECTED KNOWLEDGE LAYER</text>
  <text x="1448" y="812" text-anchor="end" font-size="11" fill="#ceff00">2,395+ EQUIPMENT RECORDS</text>
  <line x1="120" y1="828" x2="1480" y2="828" stroke="#eae8e3" stroke-opacity="0.1"/>
  <g font-size="10" letter-spacing="1" fill="#56554f">
    <text x="152" y="858">POSTGRESQL &#183; PINECONE &#183; GEMINI &#8212; ANSWERED WITHOUT LEAVING TEAMS &#183; 0 TOOL SWITCHES</text>
  </g>

  <!-- bottom measurement rule -->
  <line x1="120" y1="928" x2="1480" y2="928" stroke="#eae8e3" stroke-opacity="0.12" stroke-dasharray="1 7"/>
  <g stroke="#eae8e3" stroke-opacity="0.14">
    <line x1="120" y1="924" x2="120" y2="932"/>
    <line x1="460" y1="924" x2="460" y2="932"/>
    <line x1="800" y1="924" x2="800" y2="932"/>
    <line x1="1140" y1="924" x2="1140" y2="932"/>
    <line x1="1480" y1="924" x2="1480" y2="932"/>
  </g>
</svg>
