<svg xmlns="http://www.w3.org/2000/svg" width="1600" height="1000" viewBox="0 0 1600 1000" font-family="ui-monospace,'Cascadia Mono','Courier New',monospace">
  <defs>
    <radialGradient id="gv" cx="80%" cy="12%" r="50%">
      <stop offset="0%" stop-color="#221440" stop-opacity="0.5"/>
      <stop offset="100%" stop-color="#221440" stop-opacity="0"/>
    </radialGradient>
    <radialGradient id="gt" cx="12%" cy="80%" r="48%">
      <stop offset="0%" stop-color="#0b2b2b" stop-opacity="0.45"/>
      <stop offset="100%" stop-color="#0b2b2b" stop-opacity="0"/>
    </radialGradient>
    <radialGradient id="ga" cx="60%" cy="100%" r="35%">
      <stop offset="0%" stop-color="#ceff00" stop-opacity="0.06"/>
      <stop offset="100%" stop-color="#ceff00" stop-opacity="0"/>
    </radialGradient>
    <pattern id="dots" width="28" height="28" patternUnits="userSpaceOnUse">
      <circle cx="1.5" cy="1.5" r="1" fill="#eae8e3" fill-opacity="0.045"/>
    </pattern>
    <filter id="sh" x="-8%" y="-12%" width="116%" height="130%">
      <feDropShadow dx="0" dy="16" stdDeviation="24" flood-color="#000000" flood-opacity="0.55"/>
    </filter>
  </defs>

  <rect width="1600" height="1000" fill="#060607"/>
  <rect width="1600" height="1000" fill="url(#gv)"/>
  <rect width="1600" height="1000" fill="url(#gt)"/>
  <rect width="1600" height="1000" fill="url(#ga)"/>
  <rect width="1600" height="1000" fill="url(#dots)"/>

  <g stroke="#eae8e3" stroke-opacity="0.18" fill="none">
    <path d="M56 78v-22h22"/>
    <path d="M1544 78v-22h-22"/>
    <path d="M56 922v22h22"/>
    <path d="M1544 922v22h-22"/>
  </g>
  <text x="120" y="96" font-size="11" letter-spacing="2" fill="#56554f">FIG. 03 / PARALLEL EXECUTION</text>
  <line x1="390" y1="92" x2="1030" y2="92" stroke="#eae8e3" stroke-opacity="0.12" stroke-dasharray="1 7"/>
  <text x="1480" y="96" text-anchor="end" font-size="11" letter-spacing="2" fill="#56554f">LATENCY STAYS LOW &#8212; AGENTS DON'T QUEUE</text>

  <!-- execution lanes -->
  <rect x="120" y="150" width="1360" height="420" fill="#0c0c0e" stroke="#eae8e3" stroke-opacity="0.14" filter="url(#sh)"/>
  <text x="152" y="192" font-size="12" letter-spacing="2" fill="#eae8e3" fill-opacity="0.85">ONE QUESTION &#8212; THREE LANES</text>
  <text x="1448" y="192" text-anchor="end" font-size="10" letter-spacing="1" fill="#56554f">T &#8594;</text>
  <line x1="120" y1="208" x2="1480" y2="208" stroke="#eae8e3" stroke-opacity="0.08"/>

  <!-- time grid -->
  <g stroke="#eae8e3" stroke-opacity="0.05">
    <line x1="420" y1="208" x2="420" y2="500"/>
    <line x1="640" y1="208" x2="640" y2="500"/>
    <line x1="860" y1="208" x2="860" y2="500"/>
    <line x1="1080" y1="208" x2="1080" y2="500"/>
    <line x1="1300" y1="208" x2="1300" y2="500"/>
  </g>

  <g font-size="11" fill="#98968f">
    <text x="152" y="262">ROUTER</text>
    <text x="152" y="334">RESOLVER</text>
    <text x="152" y="406">FETCHER</text>
    <text x="152" y="478">COMPOSER</text>
  </g>
  <!-- bars: router short, resolver+fetcher overlap, composer waits only for slowest -->
  <rect x="300" y="246" width="120" height="20" fill="#56554f" fill-opacity="0.5"/>
  <rect x="420" y="318" width="330" height="20" fill="#ceff00" fill-opacity="0.85"/>
  <rect x="420" y="390" width="440" height="20" fill="#ceff00" fill-opacity="0.85"/>
  <rect x="860" y="462" width="260" height="20" fill="#eae8e3" fill-opacity="0.35"/>
  <g font-size="9" letter-spacing="1" fill="#56554f">
    <text x="300" y="240">PARSE + DISPATCH</text>
    <text x="420" y="312">RUNS IN PARALLEL</text>
    <text x="420" y="384">RUNS IN PARALLEL</text>
    <text x="860" y="456">STARTS WHEN DATA LANDS</text>
  </g>
  <line x1="1120" y1="208" x2="1120" y2="500" stroke="#ceff00" stroke-opacity="0.4" stroke-dasharray="2 6"/>
  <text x="1136" y="478" font-size="10" letter-spacing="1" fill="#ceff00" fill-opacity="0.85">REPLY POSTED</text>

  <!-- ghost: sequential alternative -->
  <text x="152" y="538" font-size="9" letter-spacing="1" fill="#56554f">SEQUENTIAL GHOST &#8212; SAME WORK, ONE LANE</text>
  <rect x="420" y="546" width="770" height="6" fill="#56554f" fill-opacity="0.25"/>
  <line x1="1300" y1="528" x2="1300" y2="560" stroke="#eae8e3" stroke-opacity="0.2" stroke-dasharray="2 6"/>

  <!-- outcome cards -->
  <g fill="#141417" stroke="#eae8e3" stroke-opacity="0.16">
    <rect x="120" y="640" width="430" height="240" filter="url(#sh)"/>
    <rect x="585" y="640" width="430" height="240" filter="url(#sh)"/>
    <rect x="1050" y="640" width="430" height="240" filter="url(#sh)"/>
  </g>
  <g font-size="56" fill="#ceff00">
    <text x="152" y="744">2,395+</text>
    <text x="617" y="744">0</text>
    <text x="1082" y="744">1 MSG</text>
  </g>
  <g font-size="10" letter-spacing="2" fill="#98968f">
    <text x="152" y="788">EQUIPMENT RECORDS INDEXED</text>
    <text x="617" y="788">TOOL SWITCHES NEEDED</text>
    <text x="1082" y="788">FROM QUESTION TO ANSWER</text>
  </g>
  <g font-size="10" letter-spacing="1" fill="#56554f">
    <text x="152" y="836">SPECS &#183; WEIGHTS &#183; SERVICE DATA</text>
    <text x="617" y="836">NO SCHEMA KNOWLEDGE REQUIRED</text>
    <text x="1082" y="836">INSIDE THE TEAMS THREAD</text>
  </g>

  <!-- bottom measurement rule -->
  <line x1="120" y1="928" x2="1480" y2="928" stroke="#eae8e3" stroke-opacity="0.12" stroke-dasharray="1 7"/>
  <g stroke="#eae8e3" stroke-opacity="0.14">
    <line x1="120" y1="924" x2="120" y2="932"/>
    <line x1="460" y1="924" x2="460" y2="932"/>
    <line x1="800" y1="924" x2="800" y2="932"/>
    <line x1="1140" y1="924" x2="1140" y2="932"/>
    <line x1="1480" y1="924" x2="1480" y2="932"/>
  </g>
</svg>
