<svg xmlns="http://www.w3.org/2000/svg" width="1600" height="1000" viewBox="0 0 1600 1000" font-family="ui-monospace,'Cascadia Mono','Courier New',monospace">
  <defs>
    <radialGradient id="teal" cx="88%" cy="12%" r="62%">
      <stop offset="0%" stop-color="#0b3435" stop-opacity="0.72"/>
      <stop offset="100%" stop-color="#0b3435" stop-opacity="0"/>
    </radialGradient>
    <radialGradient id="violet" cx="8%" cy="92%" r="56%">
      <stop offset="0%" stop-color="#29194b" stop-opacity="0.48"/>
      <stop offset="100%" stop-color="#29194b" stop-opacity="0"/>
    </radialGradient>
    <radialGradient id="volt" cx="56%" cy="34%" r="38%">
      <stop offset="0%" stop-color="#ceff00" stop-opacity="0.065"/>
      <stop offset="100%" stop-color="#ceff00" stop-opacity="0"/>
    </radialGradient>
    <pattern id="grid" width="32" height="32" patternUnits="userSpaceOnUse">
      <path d="M32 0H0V32" fill="none" stroke="#eae8e3" stroke-opacity="0.035"/>
    </pattern>
    <filter id="shadow" x="-10%" y="-14%" width="120%" height="136%">
      <feDropShadow dx="0" dy="20" stdDeviation="28" flood-color="#000" flood-opacity="0.58"/>
    </filter>
  </defs>

  <rect width="1600" height="1000" fill="#060607"/>
  <rect width="1600" height="1000" fill="url(#teal)"/>
  <rect width="1600" height="1000" fill="url(#violet)"/>
  <rect width="1600" height="1000" fill="url(#volt)"/>
  <rect width="1600" height="1000" fill="url(#grid)"/>

  <g stroke="#eae8e3" stroke-opacity="0.18" fill="none">
    <path d="M56 78V56h22"/>
    <path d="M1544 78V56h-22"/>
    <path d="M56 922v22h22"/>
    <path d="M1544 922v22h-22"/>
  </g>
  <text x="100" y="98" font-size="11" letter-spacing="2" fill="#686761">FIG. 05 / SOURCE-GROUNDED SUPPORT</text>
  <line x1="444" y1="94" x2="1110" y2="94" stroke="#eae8e3" stroke-opacity="0.12" stroke-dasharray="1 7"/>
  <text x="1500" y="98" text-anchor="end" font-size="11" letter-spacing="2" fill="#686761">MACHINERY AI — CONCEPT INTERFACE</text>

  <!-- Product shell -->
  <rect x="100" y="138" width="1050" height="704" fill="#0c0c0e" stroke="#eae8e3" stroke-opacity="0.14" filter="url(#shadow)"/>
  <g fill="#eae8e3" fill-opacity="0.14">
    <circle cx="132" cy="172" r="4"/>
    <circle cx="150" cy="172" r="4"/>
    <circle cx="168" cy="172" r="4"/>
  </g>
  <text x="202" y="177" font-size="12" letter-spacing="2" fill="#a7a59d">MACHINERY SUPPORT DESK</text>
  <circle cx="1015" cy="173" r="3" fill="#ceff00"/>
  <text x="1118" y="177" text-anchor="end" font-size="10" letter-spacing="1" fill="#686761">SYSTEM READY</text>
  <line x1="100" y1="202" x2="1150" y2="202" stroke="#eae8e3" stroke-opacity="0.08"/>

  <!-- Navigation rail -->
  <line x1="342" y1="202" x2="342" y2="842" stroke="#eae8e3" stroke-opacity="0.08"/>
  <text x="130" y="242" font-size="9" letter-spacing="2" fill="#686761">WORKSPACE</text>
  <rect x="118" y="264" width="210" height="38" fill="#151518"/>
  <rect x="118" y="264" width="2" height="38" fill="#ceff00"/>
  <text x="140" y="288" font-size="12" fill="#eae8e3">NEW CONVERSATION</text>
  <g font-size="11" fill="#686761">
    <text x="140" y="344">Recent conversations</text>
    <text x="140" y="382">Hydraulic pressure</text>
    <text x="140" y="420">Service interval</text>
    <text x="140" y="458">Controller fault code</text>
  </g>
  <text x="130" y="530" font-size="9" letter-spacing="2" fill="#686761">KNOWLEDGE</text>
  <g font-size="11" fill="#8e8c85">
    <text x="140" y="568">Documents</text>
    <text x="140" y="606">Ingestion status</text>
    <text x="140" y="644">Source library</text>
  </g>
  <rect x="130" y="744" width="174" height="54" fill="#09090b" stroke="#eae8e3" stroke-opacity="0.08"/>
  <text x="148" y="766" font-size="9" letter-spacing="1" fill="#686761">ACCESS</text>
  <text x="148" y="786" font-size="11" fill="#a7a59d">VERIFIED USER</text>
  <circle cx="286" cy="780" r="3" fill="#ceff00"/>

  <!-- Conversation -->
  <text x="390" y="248" font-size="10" letter-spacing="2" fill="#686761">TECHNICAL SUPPORT / LIVE QUERY</text>
  <line x1="390" y1="266" x2="1100" y2="266" stroke="#eae8e3" stroke-opacity="0.07"/>

  <rect x="510" y="302" width="562" height="74" fill="#151518" stroke="#eae8e3" stroke-opacity="0.1"/>
  <text x="538" y="330" font-size="10" letter-spacing="1" fill="#686761">YOU</text>
  <text x="538" y="356" font-size="14" fill="#eae8e3" fill-opacity="0.88">How should I diagnose a hydraulic pressure loss?</text>

  <rect x="390" y="410" width="682" height="302" fill="#111114" stroke="#ceff00" stroke-opacity="0.24" filter="url(#shadow)"/>
  <rect x="418" y="438" width="38" height="38" fill="#060607" stroke="#ceff00" stroke-opacity="0.72"/>
  <text x="437" y="462" text-anchor="middle" font-size="10" fill="#ceff00">AI</text>
  <text x="476" y="452" font-size="11" letter-spacing="1" fill="#eae8e3">MACHINERY AI</text>
  <text x="1044" y="452" text-anchor="end" font-size="9" letter-spacing="1" fill="#ceff00">SOURCES ATTACHED</text>
  <line x1="418" y1="490" x2="1044" y2="490" stroke="#eae8e3" stroke-opacity="0.08"/>
  <text x="418" y="524" font-size="13" fill="#c8c6bf">Begin with the fluid level and a visible leak inspection.</text>
  <text x="418" y="551" font-size="13" fill="#c8c6bf">Then check filter restriction and compare pump pressure</text>
  <text x="418" y="578" font-size="13" fill="#c8c6bf">against the documented service range for the machine.</text>
  <rect x="418" y="612" width="294" height="52" fill="#08080a" stroke="#eae8e3" stroke-opacity="0.1"/>
  <text x="436" y="633" font-size="9" letter-spacing="1" fill="#686761">SOURCE 01</text>
  <text x="436" y="652" font-size="10" fill="#a7a59d">HYDRAULICS MANUAL / SERVICE</text>
  <rect x="726" y="612" width="318" height="52" fill="#08080a" stroke="#eae8e3" stroke-opacity="0.1"/>
  <text x="744" y="633" font-size="9" letter-spacing="1" fill="#686761">SOURCE 02</text>
  <text x="744" y="652" font-size="10" fill="#a7a59d">MAINTENANCE TABLE / PRESSURE</text>
  <text x="418" y="692" font-size="9" letter-spacing="1" fill="#686761">HYBRID SEARCH · RERANKED · CONTEXT COMPRESSED</text>

  <rect x="390" y="758" width="682" height="48" fill="#060607" stroke="#eae8e3" stroke-opacity="0.1"/>
  <text x="414" y="788" font-size="11" letter-spacing="1" fill="#686761">ASK ABOUT A MACHINE, MANUAL OR FAULT CODE</text>
  <text x="1046" y="788" text-anchor="end" font-size="9" letter-spacing="1" fill="#686761">RETURN</text>

  <!-- Retrieval trace -->
  <rect x="1082" y="254" width="418" height="502" fill="#151518" stroke="#eae8e3" stroke-opacity="0.18" filter="url(#shadow)"/>
  <text x="1112" y="294" font-size="12" letter-spacing="2" fill="#eae8e3">RAG EXECUTION TRACE</text>
  <text x="1470" y="294" text-anchor="end" font-size="9" letter-spacing="1" fill="#686761">VISIBLE PIPELINE</text>
  <line x1="1082" y1="316" x2="1500" y2="316" stroke="#eae8e3" stroke-opacity="0.09"/>

  <g fill="none" stroke="#ceff00" stroke-opacity="0.54">
    <path d="M1164 368H1238"/>
    <path d="M1338 368H1412"/>
    <path d="M1290 398V456"/>
    <path d="M1290 500V558"/>
    <path d="M1290 602V652"/>
  </g>
  <g fill="#ceff00">
    <path d="M1238 368l-8-5v10z"/>
    <path d="M1412 368l-8-5v10z"/>
    <path d="M1290 456l-5-8h10z"/>
    <path d="M1290 558l-5-8h10z"/>
    <path d="M1290 652l-5-8h10z"/>
  </g>
  <g fill="#09090b" stroke="#eae8e3" stroke-opacity="0.16">
    <rect x="1108" y="346" width="112" height="44"/>
    <rect x="1238" y="346" width="100" height="44" stroke="#ceff00" stroke-opacity="0.55"/>
    <rect x="1412" y="346" width="62" height="44"/>
    <rect x="1184" y="456" width="212" height="44"/>
    <rect x="1184" y="558" width="212" height="44"/>
    <rect x="1184" y="652" width="212" height="48" stroke="#ceff00" stroke-opacity="0.55"/>
  </g>
  <g text-anchor="middle" font-size="9" letter-spacing="1">
    <text x="1164" y="373" fill="#a7a59d">VECTOR</text>
    <text x="1288" y="373" fill="#ceff00">BM25</text>
    <text x="1443" y="373" fill="#a7a59d">FUSE</text>
    <text x="1290" y="483" fill="#a7a59d">COHERE RERANK</text>
    <text x="1290" y="585" fill="#a7a59d">CONTEXT COMPRESSION</text>
    <text x="1290" y="681" fill="#ceff00">GROUNDED ANSWER</text>
  </g>
  <text x="1112" y="728" font-size="9" letter-spacing="1" fill="#686761">WEAVIATE MULTI-TENANCY · SOURCE ATTRIBUTION</text>

  <line x1="100" y1="892" x2="1500" y2="892" stroke="#eae8e3" stroke-opacity="0.12" stroke-dasharray="1 7"/>
  <text x="100" y="924" font-size="10" letter-spacing="1" fill="#686761">FASTAPI · REACT · TYPESCRIPT · WEAVIATE · MONGODB</text>
  <text x="1500" y="924" text-anchor="end" font-size="10" letter-spacing="1" fill="#686761">AUTH · INGESTION · RETRIEVAL · OBSERVABILITY</text>
</svg>
