<svg xmlns="http://www.w3.org/2000/svg" width="1600" height="1000" viewBox="0 0 1600 1000" font-family="ui-monospace,'Cascadia Mono','Courier New',monospace">
  <defs>
    <radialGradient id="gw" cx="16%" cy="10%" r="58%">
      <stop offset="0%" stop-color="#3a240e" stop-opacity="0.4"/>
      <stop offset="100%" stop-color="#3a240e" stop-opacity="0"/>
    </radialGradient>
    <radialGradient id="gv" cx="90%" cy="70%" r="48%">
      <stop offset="0%" stop-color="#221440" stop-opacity="0.35"/>
      <stop offset="100%" stop-color="#221440" stop-opacity="0"/>
    </radialGradient>
    <radialGradient id="ga" cx="45%" cy="100%" r="38%">
      <stop offset="0%" stop-color="#ceff00" stop-opacity="0.06"/>
      <stop offset="100%" stop-color="#ceff00" stop-opacity="0"/>
    </radialGradient>
    <pattern id="dots" width="28" height="28" patternUnits="userSpaceOnUse">
      <circle cx="1.5" cy="1.5" r="1" fill="#eae8e3" fill-opacity="0.04"/>
    </pattern>
    <filter id="sh" x="-8%" y="-12%" width="116%" height="130%">
      <feDropShadow dx="0" dy="16" stdDeviation="24" flood-color="#000000" flood-opacity="0.5"/>
    </filter>
    <path id="ck" d="M0 4l3.5 3.5L10 0"/>
  </defs>

  <rect width="1600" height="1000" fill="#060607"/>
  <rect width="1600" height="1000" fill="url(#gw)"/>
  <rect width="1600" height="1000" fill="url(#gv)"/>
  <rect width="1600" height="1000" fill="url(#ga)"/>
  <rect width="1600" height="1000" fill="url(#dots)"/>

  <!-- frame: corner ticks + top rule -->
  <g stroke="#eae8e3" stroke-opacity="0.18" fill="none">
    <path d="M56 78v-22h22"/>
    <path d="M1544 78v-22h-22"/>
    <path d="M56 922v22h22"/>
    <path d="M1544 922v22h-22"/>
  </g>
  <text x="100" y="96" font-size="11" letter-spacing="2" fill="#56554f">FIG. 03 / PERSONAL PROJECT</text>
  <line x1="400" y1="92" x2="1100" y2="92" stroke="#eae8e3" stroke-opacity="0.12" stroke-dasharray="1 7"/>
  <text x="1500" y="96" text-anchor="end" font-size="11" letter-spacing="2" fill="#56554f">COURSEVIEWER &#8212; LEARNING LIBRARY</text>

  <!-- app window -->
  <rect x="100" y="130" width="1310" height="690" fill="#0c0c0e" stroke="#eae8e3" stroke-opacity="0.12" filter="url(#sh)"/>
  <!-- top bar: breadcrumb + search -->
  <text x="132" y="167" font-size="12" letter-spacing="1"><tspan fill="#98968f">LIBRARY</tspan><tspan fill="#56554f"> / FRONTEND / ALL COURSES</tspan></text>
  <rect x="700" y="148" width="330" height="34" fill="#060607" stroke="#eae8e3" stroke-opacity="0.1"/>
  <text x="722" y="169" font-size="11" letter-spacing="1" fill="#56554f">SEARCH 24 COURSES&#8230;</text>
  <rect x="992" y="156" width="22" height="18" fill="none" stroke="#eae8e3" stroke-opacity="0.12"/>
  <text x="1003" y="169" text-anchor="middle" font-size="10" fill="#56554f">/</text>
  <rect x="1060" y="148" width="34" height="34" fill="#141417" stroke="#eae8e3" stroke-opacity="0.12"/>
  <text x="1077" y="169" text-anchor="middle" font-size="10" fill="#98968f">HV</text>
  <line x1="100" y1="194" x2="1410" y2="194" stroke="#eae8e3" stroke-opacity="0.08"/>

  <!-- course grid 3x2 -->
  <!-- card 1: in progress, volt -->
  <g>
    <rect x="132" y="226" width="300" height="220" rx="2" fill="#141417" stroke="#eae8e3" stroke-opacity="0.1"/>
    <text x="152" y="260" font-size="9" letter-spacing="2" fill="#56554f">REACT</text>
    <text x="412" y="260" text-anchor="end" font-size="9" letter-spacing="1" fill="#ceff00" fill-opacity="0.9">IN PROGRESS</text>
    <rect x="152" y="284" width="200" height="12" rx="1" fill="#98968f" fill-opacity="0.55"/>
    <rect x="152" y="306" width="140" height="12" rx="1" fill="#98968f" fill-opacity="0.35"/>
    <rect x="152" y="338" width="240" height="6" fill="#56554f" fill-opacity="0.35"/>
    <rect x="152" y="352" width="190" height="6" fill="#56554f" fill-opacity="0.25"/>
    <text x="152" y="394" font-size="10" letter-spacing="1" fill="#56554f">12 LESSONS &#183; 6H 40M</text>
    <text x="412" y="394" text-anchor="end" font-size="10" fill="#ceff00">64%</text>
    <rect x="152" y="412" width="260" height="3" fill="#eae8e3" fill-opacity="0.07"/>
    <rect x="152" y="412" width="166" height="3" fill="#ceff00"/>
  </g>
  <!-- card 2: complete -->
  <g>
    <rect x="452" y="226" width="300" height="220" rx="2" fill="#141417" stroke="#eae8e3" stroke-opacity="0.1"/>
    <text x="472" y="260" font-size="9" letter-spacing="2" fill="#56554f">TYPESCRIPT</text>
    <text x="732" y="260" text-anchor="end" font-size="9" letter-spacing="1" fill="#56554f">COMPLETE</text>
    <rect x="472" y="284" width="220" height="12" rx="1" fill="#98968f" fill-opacity="0.55"/>
    <rect x="472" y="306" width="120" height="12" rx="1" fill="#98968f" fill-opacity="0.35"/>
    <rect x="472" y="338" width="220" height="6" fill="#56554f" fill-opacity="0.35"/>
    <rect x="472" y="352" width="200" height="6" fill="#56554f" fill-opacity="0.25"/>
    <text x="472" y="394" font-size="10" letter-spacing="1" fill="#56554f">18 LESSONS &#183; 8H 10M</text>
    <text x="732" y="394" text-anchor="end" font-size="10" fill="#56554f">100%</text>
    <rect x="472" y="412" width="260" height="3" fill="#eae8e3" fill-opacity="0.07"/>
    <rect x="472" y="412" width="260" height="3" fill="#98968f" fill-opacity="0.5"/>
  </g>
  <!-- card 3 -->
  <g>
    <rect x="772" y="226" width="300" height="220" rx="2" fill="#141417" stroke="#eae8e3" stroke-opacity="0.1"/>
    <text x="792" y="260" font-size="9" letter-spacing="2" fill="#56554f">NODE</text>
    <rect x="792" y="284" width="180" height="12" rx="1" fill="#98968f" fill-opacity="0.55"/>
    <rect x="792" y="306" width="150" height="12" rx="1" fill="#98968f" fill-opacity="0.35"/>
    <rect x="792" y="338" width="230" height="6" fill="#56554f" fill-opacity="0.35"/>
    <rect x="792" y="352" width="170" height="6" fill="#56554f" fill-opacity="0.25"/>
    <text x="792" y="394" font-size="10" letter-spacing="1" fill="#56554f">14 LESSONS &#183; 5H 05M</text>
    <text x="1052" y="394" text-anchor="end" font-size="10" fill="#56554f">35%</text>
    <rect x="792" y="412" width="260" height="3" fill="#eae8e3" fill-opacity="0.07"/>
    <rect x="792" y="412" width="91" height="3" fill="#98968f" fill-opacity="0.5"/>
  </g>
  <!-- card 4 -->
  <g>
    <rect x="132" y="470" width="300" height="220" rx="2" fill="#141417" stroke="#eae8e3" stroke-opacity="0.1"/>
    <text x="152" y="504" font-size="9" letter-spacing="2" fill="#56554f">CSS</text>
    <rect x="152" y="528" width="210" height="12" rx="1" fill="#98968f" fill-opacity="0.55"/>
    <rect x="152" y="550" width="130" height="12" rx="1" fill="#98968f" fill-opacity="0.35"/>
    <rect x="152" y="582" width="250" height="6" fill="#56554f" fill-opacity="0.35"/>
    <rect x="152" y="596" width="180" height="6" fill="#56554f" fill-opacity="0.25"/>
    <text x="152" y="638" font-size="10" letter-spacing="1" fill="#56554f">9 LESSONS &#183; 3H 30M</text>
    <text x="412" y="638" text-anchor="end" font-size="10" fill="#56554f">12%</text>
    <rect x="152" y="656" width="260" height="3" fill="#eae8e3" fill-opacity="0.07"/>
    <rect x="152" y="656" width="31" height="3" fill="#98968f" fill-opacity="0.5"/>
  </g>
  <!-- card 5 -->
  <g>
    <rect x="452" y="470" width="300" height="220" rx="2" fill="#141417" stroke="#eae8e3" stroke-opacity="0.1"/>
    <text x="472" y="504" font-size="9" letter-spacing="2" fill="#56554f">TESTING</text>
    <rect x="472" y="528" width="190" height="12" rx="1" fill="#98968f" fill-opacity="0.55"/>
    <rect x="472" y="550" width="160" height="12" rx="1" fill="#98968f" fill-opacity="0.35"/>
    <rect x="472" y="582" width="210" height="6" fill="#56554f" fill-opacity="0.35"/>
    <rect x="472" y="596" width="190" height="6" fill="#56554f" fill-opacity="0.25"/>
    <text x="472" y="638" font-size="10" letter-spacing="1" fill="#56554f">11 LESSONS &#183; 4H 45M</text>
    <text x="732" y="638" text-anchor="end" font-size="10" fill="#56554f">80%</text>
    <rect x="472" y="656" width="260" height="3" fill="#eae8e3" fill-opacity="0.07"/>
    <rect x="472" y="656" width="208" height="3" fill="#98968f" fill-opacity="0.5"/>
  </g>
  <!-- card 6 -->
  <g>
    <rect x="772" y="470" width="300" height="220" rx="2" fill="#141417" stroke="#eae8e3" stroke-opacity="0.1"/>
    <text x="792" y="504" font-size="9" letter-spacing="2" fill="#56554f">SYSTEM DESIGN</text>
    <text x="1052" y="504" text-anchor="end" font-size="9" letter-spacing="1" fill="#56554f">NOT STARTED</text>
    <rect x="792" y="528" width="230" height="12" rx="1" fill="#98968f" fill-opacity="0.55"/>
    <rect x="792" y="550" width="110" height="12" rx="1" fill="#98968f" fill-opacity="0.35"/>
    <rect x="792" y="582" width="240" height="6" fill="#56554f" fill-opacity="0.35"/>
    <rect x="792" y="596" width="200" height="6" fill="#56554f" fill-opacity="0.25"/>
    <text x="792" y="638" font-size="10" letter-spacing="1" fill="#56554f">16 LESSONS &#183; 7H 20M</text>
    <text x="1052" y="638" text-anchor="end" font-size="10" fill="#56554f">0%</text>
    <rect x="792" y="656" width="260" height="3" fill="#eae8e3" fill-opacity="0.07"/>
  </g>
  <!-- grid footer -->
  <text x="132" y="766" font-size="10" letter-spacing="1" fill="#56554f">SHOWING 6 OF 24 COURSES</text>
  <g>
    <rect x="1018" y="758" width="6" height="6" fill="#98968f"/>
    <rect x="1034" y="758" width="6" height="6" fill="#56554f" fill-opacity="0.4"/>
    <rect x="1050" y="758" width="6" height="6" fill="#56554f" fill-opacity="0.4"/>
    <rect x="1066" y="758" width="6" height="6" fill="#56554f" fill-opacity="0.4"/>
  </g>

  <!-- detail panel (overlaps window edge) -->
  <rect x="1140" y="210" width="340" height="560" fill="#141417" stroke="#eae8e3" stroke-opacity="0.16" filter="url(#sh)"/>
  <text x="1168" y="248" font-size="9" letter-spacing="2" fill="#56554f">CONTINUE</text>
  <text x="1168" y="276" font-size="16" letter-spacing="1" fill="#eae8e3" fill-opacity="0.9">REACT PATTERNS</text>
  <text x="1168" y="298" font-size="10" letter-spacing="1" fill="#56554f">MODULE 07 OF 12 &#183; 6H 40M</text>
  <rect x="1168" y="316" width="284" height="3" fill="#eae8e3" fill-opacity="0.07"/>
  <rect x="1168" y="316" width="165" height="3" fill="#98968f" fill-opacity="0.6"/>
  <line x1="1140" y1="340" x2="1480" y2="340" stroke="#eae8e3" stroke-opacity="0.08"/>
  <!-- module checklist -->
  <g fill="none" stroke="#eae8e3" stroke-opacity="0.14">
    <rect x="1168" y="361" width="14" height="14"/>
    <rect x="1168" y="399" width="14" height="14"/>
    <rect x="1168" y="437" width="14" height="14"/>
    <rect x="1168" y="475" width="14" height="14"/>
    <rect x="1168" y="513" width="14" height="14"/>
    <rect x="1168" y="551" width="14" height="14"/>
  </g>
  <g fill="none" stroke="#98968f" stroke-width="1.5">
    <use href="#ck" x="1170" y="364"/>
    <use href="#ck" x="1170" y="402"/>
    <use href="#ck" x="1170" y="440"/>
    <use href="#ck" x="1170" y="478"/>
    <use href="#ck" x="1170" y="516"/>
    <use href="#ck" x="1170" y="554"/>
  </g>
  <g font-size="11" fill="#98968f">
    <text x="1196" y="372">01 RENDER PROPS</text>
    <text x="1196" y="410">02 COMPOUND COMPONENTS</text>
    <text x="1196" y="448">03 CONTEXT MODULES</text>
    <text x="1196" y="486">04 CUSTOM HOOKS</text>
    <text x="1196" y="524">05 STATE MACHINES</text>
    <text x="1196" y="562">06 PORTALS IN PRACTICE</text>
  </g>
  <!-- current module (volt) -->
  <rect x="1154" y="577" width="312" height="34" fill="#ceff00" fill-opacity="0.05"/>
  <rect x="1154" y="577" width="2" height="34" fill="#ceff00"/>
  <rect x="1168" y="589" width="14" height="14" fill="none" stroke="#ceff00" stroke-opacity="0.8"/>
  <rect x="1172" y="593" width="6" height="6" fill="#ceff00"/>
  <text x="1196" y="600" font-size="11" fill="#ceff00" fill-opacity="0.9">07 STATE REDUCERS</text>
  <!-- upcoming -->
  <g fill="none" stroke="#eae8e3" stroke-opacity="0.1">
    <rect x="1168" y="627" width="14" height="14"/>
    <rect x="1168" y="665" width="14" height="14"/>
    <rect x="1168" y="703" width="14" height="14"/>
  </g>
  <g font-size="11" fill="#56554f">
    <text x="1196" y="638">08 CONCURRENT UI</text>
    <text x="1196" y="676">09 SUSPENSE PATTERNS</text>
    <text x="1196" y="714">10 PERFORMANCE LAB</text>
  </g>
  <g font-size="9" text-anchor="end" fill="#56554f">
    <text x="1452" y="372">24M</text>
    <text x="1452" y="410">31M</text>
    <text x="1452" y="448">28M</text>
    <text x="1452" y="486">35M</text>
    <text x="1452" y="524">40M</text>
    <text x="1452" y="562">22M</text>
    <text x="1452" y="600" fill="#ceff00" fill-opacity="0.6">38M</text>
    <text x="1452" y="638">26M</text>
    <text x="1452" y="676">33M</text>
    <text x="1452" y="714">45M</text>
  </g>
  <!-- resume button -->
  <rect x="1168" y="730" width="284" height="36" fill="none" stroke="#eae8e3" stroke-opacity="0.16"/>
  <text x="1300" y="753" text-anchor="middle" font-size="11" letter-spacing="2" fill="#eae8e3" fill-opacity="0.8">RESUME MODULE 07</text>
  <path d="M1424 754l8-8m-6 0h6v6" stroke="#98968f" fill="none"/>

  <!-- bottom rule -->
  <line x1="100" y1="868" x2="1480" y2="868" stroke="#eae8e3" stroke-opacity="0.12" stroke-dasharray="1 7"/>
  <g stroke="#eae8e3" stroke-opacity="0.14">
    <line x1="100" y1="864" x2="100" y2="872"/>
    <line x1="560" y1="864" x2="560" y2="872"/>
    <line x1="1020" y1="864" x2="1020" y2="872"/>
    <line x1="1480" y1="864" x2="1480" y2="872"/>
  </g>
  <text x="100" y="900" font-size="10" letter-spacing="1" fill="#56554f">REACT &#183; NODE &#183; POSTGRES &#183; BUILT FOR DAILY STUDY</text>
  <text x="1480" y="900" text-anchor="end" font-size="10" letter-spacing="1" fill="#56554f">7/12 MODULES COMPLETE</text>
</svg>
