<svg xmlns="http://www.w3.org/2000/svg" width="1600" height="1000" viewBox="0 0 1600 1000">
  <defs>
    <radialGradient id="g1" cx="50%" cy="10%" r="75%">
      <stop offset="0%" stop-color="#1d1430"/>
      <stop offset="100%" stop-color="#0c0c0e"/>
    </radialGradient>
  </defs>
  <rect width="1600" height="1000" fill="#060607"/>
  <rect width="1600" height="1000" fill="url(#g1)"/>
  <g stroke="#eae8e3" stroke-opacity="0.07">
    <line x1="0" y1="250" x2="1600" y2="250"/>
    <line x1="0" y1="750" x2="1600" y2="750"/>
    <line x1="400" y1="0" x2="400" y2="1000"/>
    <line x1="1200" y1="0" x2="1200" y2="1000"/>
  </g>
  <g transform="translate(120,400)">
    <rect x="0" y="0" width="380" height="240" rx="8" fill="#141417" stroke="#eae8e3" stroke-opacity="0.12"/>
    <rect x="24" y="28" width="180" height="14" rx="7" fill="#ceff00" opacity="0.9"/>
    <rect x="24" y="64" width="300" height="10" rx="5" fill="#56554f"/>
    <rect x="24" y="88" width="260" height="10" rx="5" fill="#56554f"/>
    <rect x="420" y="0" width="380" height="240" rx="8" fill="#0c0c0e" stroke="#eae8e3" stroke-opacity="0.1"/>
    <rect x="444" y="28" width="160" height="14" rx="7" fill="#98968f"/>
    <rect x="444" y="64" width="300" height="10" rx="5" fill="#56554f"/>
    <rect x="444" y="88" width="240" height="10" rx="5" fill="#56554f"/>
    <rect x="840" y="0" width="380" height="240" rx="8" fill="#0c0c0e" stroke="#eae8e3" stroke-opacity="0.1"/>
    <rect x="864" y="28" width="200" height="14" rx="7" fill="#98968f"/>
    <rect x="864" y="64" width="280" height="10" rx="5" fill="#56554f"/>
    <rect x="864" y="88" width="300" height="10" rx="5" fill="#56554f"/>
  </g>
  <text x="120" y="200" font-family="Georgia, 'Times New Roman', serif" font-size="120" fill="#eae8e3">CourseViewer</text>
  <text x="124" y="260" font-family="ui-monospace, 'Courier New', monospace" font-size="22" letter-spacing="6" fill="#ceff00">FULL-STACK — REACT / NODE</text>
</svg>
